<svg width="78" height="78" viewBox="0 0 78 78" fill="none" xmlns="http://www.w3.org/2000/svg">
<g filter="url(#filter0_d_114_110)">
<rect x="9" y="5" width="60" height="60" rx="8" fill="white"/>
</g>
<path d="M39 40V46.25M44 37.5V46.25M49 32.5V46.25M51.5 23.75L40.6925 34.5575C40.6344 34.6157 40.5655 34.6619 40.4895 34.6934C40.4136 34.7249 40.3322 34.7411 40.25 34.7411C40.1678 34.7411 40.0864 34.7249 40.0105 34.6934C39.9345 34.6619 39.8656 34.6157 39.8075 34.5575L35.6925 30.4425C35.5753 30.3253 35.4164 30.2595 35.2506 30.2595C35.0849 30.2595 34.926 30.3253 34.8088 30.4425L26.5 38.75M29 42.5V46.25M34 37.5V46.25" stroke="#54BD95" stroke-width="2" stroke-linecap="round" stroke-linejoin="round"/>
<defs>
<filter id="filter0_d_114_110" x="0" y="0" width="78" height="78" filterUnits="userSpaceOnUse" color-interpolation-filters="sRGB">
<feFlood flood-opacity="0" result="BackgroundImageFix"/>
<feColorMatrix in="SourceAlpha" type="matrix" values="0 0 0 0 0 0 0 0 0 0 0 0 0 0 0 0 0 0 127 0" result="hardAlpha"/>
<feOffset dy="4"/>
<feGaussianBlur stdDeviation="4.5"/>
<feComposite in2="hardAlpha" operator="out"/>
<feColorMatrix type="matrix" values="0 0 0 0 0 0 0 0 0 0 0 0 0 0 0 0 0 0 0.05 0"/>
<feBlend mode="normal" in2="BackgroundImageFix" result="effect1_dropShadow_114_110"/>
<feBlend mode="normal" in="SourceGraphic" in2="effect1_dropShadow_114_110" result="shape"/>
</filter>
</defs>
</svg>
