<svg width="40" height="40" viewBox="0 0 40 40" fill="none" xmlns="http://www.w3.org/2000/svg">
<g clip-path="url(#clip0_160_152)">
<path d="M0.847007 19.7606C0.846077 23.1213 1.72422 26.4029 3.39398 29.2953L0.687317 39.1778L10.8008 36.526C13.5981 38.0488 16.7322 38.8467 19.9171 38.8469H19.9255C30.4394 38.8469 38.998 30.2914 39.0025 19.7756C39.0045 14.68 37.0219 9.88833 33.4197 6.28336C29.8182 2.67871 25.0282 0.692511 19.9247 0.690186C9.40949 0.690186 0.851503 9.24522 0.847162 19.7606" fill="url(#paint0_linear_160_152)"/>
<path d="M0.165891 19.7544C0.164806 23.2361 1.07442 26.635 2.80372 29.631L0 39.8678L10.4761 37.1209C13.3626 38.6947 16.6126 39.5245 19.9195 39.5257H19.9281C30.8192 39.5257 39.6853 30.6625 39.6899 19.7702C39.6918 14.4915 37.6378 9.5276 33.907 5.79349C30.1757 2.05984 25.2144 0.00217054 19.9281 0C9.03504 0 0.170233 8.86202 0.165891 19.7544ZM6.40481 29.115L6.01364 28.4941C4.3693 25.8795 3.5014 22.8581 3.50264 19.7557C3.50605 10.7022 10.8741 3.33643 19.9343 3.33643C24.3219 3.33829 28.4453 5.04868 31.5467 8.15194C34.6479 11.2555 36.3544 15.3811 36.3533 19.769C36.3493 28.8225 28.9811 36.1891 19.9281 36.1891H19.9216C16.9738 36.1876 14.0828 35.396 11.5616 33.9L10.9616 33.5442L4.74481 35.1741L6.40481 29.115Z" fill="url(#paint1_linear_160_152)"/>
<path d="M14.9889 11.4958C14.6189 10.6736 14.2296 10.657 13.8779 10.6426C13.5898 10.6302 13.2605 10.6311 12.9315 10.6311C12.6022 10.6311 12.0672 10.755 11.6149 11.2488C11.1622 11.7431 9.88654 12.9375 9.88654 15.3668C9.88654 17.7961 11.656 20.144 11.9027 20.4738C12.1496 20.8029 15.3186 25.9477 20.3375 27.9269C24.5087 29.5717 25.3575 29.2446 26.2628 29.1621C27.1682 29.08 29.1844 27.968 29.5957 26.815C30.0073 25.6621 30.0073 24.6739 29.8839 24.4674C29.7605 24.2617 29.4312 24.1381 28.9374 23.8913C28.4436 23.6445 26.0158 22.4497 25.5633 22.2849C25.1106 22.1203 24.7814 22.0381 24.4521 22.5325C24.1228 23.0262 23.1772 24.1381 22.889 24.4674C22.6011 24.7975 22.3129 24.8386 21.8192 24.5916C21.3251 24.3438 19.7349 23.8231 17.8482 22.141C16.3803 20.8322 15.3893 19.2159 15.1013 18.7215C14.8132 18.2279 15.0704 17.9603 15.318 17.7142C15.5399 17.493 15.812 17.1376 16.0591 16.8494C16.3053 16.561 16.3875 16.3553 16.5521 16.026C16.7169 15.6964 16.6344 15.408 16.5112 15.161C16.3875 14.9141 15.4279 12.472 14.9889 11.4958Z" fill="white"/>
</g>
<defs>
<linearGradient id="paint0_linear_160_152" x1="1916.45" y1="3849.45" x2="1916.45" y2="0.690186" gradientUnits="userSpaceOnUse">
<stop stop-color="#1FAF38"/>
<stop offset="1" stop-color="#60D669"/>
</linearGradient>
<linearGradient id="paint1_linear_160_152" x1="1984.5" y1="3986.78" x2="1984.5" y2="0" gradientUnits="userSpaceOnUse">
<stop stop-color="#F9F9F9"/>
<stop offset="1" stop-color="white"/>
</linearGradient>
<clipPath id="clip0_160_152">
<rect width="39.6899" height="40" fill="white"/>
</clipPath>
</defs>
</svg>
