<svg width="78" height="78" viewBox="0 0 78 78" fill="none" xmlns="http://www.w3.org/2000/svg">
<g filter="url(#filter0_d_114_109)">
<rect x="9" y="5" width="60" height="60" rx="8" fill="white"/>
</g>
<path d="M28.8125 30.775C28.63 29.9532 28.6581 29.0986 28.8939 28.2904C29.1298 27.4823 29.5659 26.7468 30.1618 26.1522C30.7577 25.5575 31.4941 25.1229 32.3028 24.8887C33.1114 24.6546 33.966 24.6283 34.7875 24.8125C35.2396 24.1054 35.8625 23.5234 36.5987 23.1204C37.3349 22.7173 38.1607 22.506 39 22.506C39.8393 22.506 40.6651 22.7173 41.4013 23.1204C42.1375 23.5234 42.7604 24.1054 43.2125 24.8125C44.0352 24.6275 44.8913 24.6536 45.7012 24.8884C46.5112 25.1231 47.2485 25.5589 47.8448 26.1552C48.4411 26.7515 48.8768 27.4888 49.1116 28.2988C49.3464 29.1087 49.3725 29.9648 49.1875 30.7875C49.8946 31.2396 50.4765 31.8625 50.8796 32.5987C51.2827 33.3349 51.494 34.1607 51.494 35C51.494 35.8393 51.2827 36.6651 50.8796 37.4013C50.4765 38.1375 49.8946 38.7604 49.1875 39.2125C49.3717 40.034 49.3454 40.8886 49.1113 41.6972C48.8771 42.5059 48.4425 43.2423 47.8478 43.8382C47.2532 44.4341 46.5177 44.8702 45.7096 45.1061C44.9014 45.3419 44.0468 45.3699 43.225 45.1875C42.7734 45.8973 42.1501 46.4818 41.4127 46.8866C40.6752 47.2915 39.8475 47.5038 39.0062 47.5038C38.165 47.5038 37.3373 47.2915 36.5998 46.8866C35.8624 46.4818 35.239 45.8973 34.7875 45.1875C33.966 45.3717 33.1114 45.3454 32.3028 45.1113C31.4941 44.8771 30.7577 44.4425 30.1618 43.8478C29.5659 43.2532 29.1298 42.5177 28.8939 41.7096C28.6581 40.9014 28.63 40.0468 28.8125 39.225C28.0999 38.7741 27.513 38.1502 27.1063 37.4115C26.6996 36.6728 26.4863 35.8433 26.4863 35C26.4863 34.1567 26.6996 33.3272 27.1063 32.5885C27.513 31.8498 28.0999 31.2259 28.8125 30.775Z" stroke="#54BD95" stroke-width="2" stroke-linecap="round" stroke-linejoin="round"/>
<path d="M44 30H36.5C35.837 30 35.2011 30.2634 34.7322 30.7322C34.2634 31.2011 34 31.837 34 32.5C34 33.163 34.2634 33.7989 34.7322 34.2678C35.2011 34.7366 35.837 35 36.5 35H41.5C42.163 35 42.7989 35.2634 43.2678 35.7322C43.7366 36.2011 44 36.837 44 37.5C44 38.163 43.7366 38.7989 43.2678 39.2678C42.7989 39.7366 42.163 40 41.5 40H34M39 42.5V27.5" stroke="#54BD95" stroke-width="2" stroke-linecap="round" stroke-linejoin="round"/>
<defs>
<filter id="filter0_d_114_109" x="0" y="0" width="78" height="78" filterUnits="userSpaceOnUse" color-interpolation-filters="sRGB">
<feFlood flood-opacity="0" result="BackgroundImageFix"/>
<feColorMatrix in="SourceAlpha" type="matrix" values="0 0 0 0 0 0 0 0 0 0 0 0 0 0 0 0 0 0 127 0" result="hardAlpha"/>
<feOffset dy="4"/>
<feGaussianBlur stdDeviation="4.5"/>
<feComposite in2="hardAlpha" operator="out"/>
<feColorMatrix type="matrix" values="0 0 0 0 0 0 0 0 0 0 0 0 0 0 0 0 0 0 0.05 0"/>
<feBlend mode="normal" in2="BackgroundImageFix" result="effect1_dropShadow_114_109"/>
<feBlend mode="normal" in="SourceGraphic" in2="effect1_dropShadow_114_109" result="shape"/>
</filter>
</defs>
</svg>
