<svg width="349" height="108" viewBox="0 0 349 108" fill="none" xmlns="http://www.w3.org/2000/svg">
<g filter="url(#filter0_d_160_163)">
<rect x="24" y="4" width="301" height="60" rx="30" fill="#54BD95" shape-rendering="crispEdges"/>
<path d="M109.676 41H105.438V27.9091H109.81C111.093 27.9091 112.195 28.1712 113.115 28.6953C114.036 29.2152 114.741 29.9631 115.231 30.9389C115.725 31.9105 115.972 33.076 115.972 34.4354C115.972 35.799 115.723 36.9709 115.224 37.951C114.73 38.9311 114.014 39.6854 113.077 40.2138C112.139 40.7379 111.006 41 109.676 41ZM107.413 39.2741H109.567C110.565 39.2741 111.393 39.0866 112.054 38.7116C112.714 38.3324 113.209 37.7848 113.537 37.0689C113.865 36.3487 114.029 35.4709 114.029 34.4354C114.029 33.4084 113.865 32.5369 113.537 31.821C113.213 31.1051 112.729 30.5618 112.086 30.1911C111.442 29.8203 110.643 29.6349 109.689 29.6349H107.413V39.2741ZM122.507 41.1982C121.539 41.1982 120.706 40.9915 120.007 40.5781C119.313 40.1605 118.776 39.5746 118.396 38.8203C118.021 38.0618 117.834 37.1733 117.834 36.1548C117.834 35.1491 118.021 34.2628 118.396 33.4957C118.776 32.7287 119.304 32.13 119.982 31.6996C120.664 31.2692 121.46 31.054 122.372 31.054C122.926 31.054 123.463 31.1456 123.983 31.3288C124.503 31.5121 124.97 31.7997 125.383 32.1918C125.796 32.5838 126.122 33.093 126.361 33.7195C126.6 34.3416 126.719 35.098 126.719 35.9886V36.6662H118.914V35.2344H124.846C124.846 34.7315 124.744 34.2862 124.539 33.8984C124.335 33.5064 124.047 33.1974 123.676 32.9716C123.31 32.7457 122.879 32.6328 122.385 32.6328C121.848 32.6328 121.379 32.7649 120.979 33.0291C120.583 33.2891 120.276 33.63 120.058 34.0518C119.845 34.4695 119.739 34.9233 119.739 35.4134V36.532C119.739 37.1882 119.854 37.7464 120.084 38.2067C120.318 38.6669 120.644 39.0185 121.062 39.2614C121.48 39.5 121.968 39.6193 122.526 39.6193C122.888 39.6193 123.218 39.5682 123.517 39.4659C123.815 39.3594 124.073 39.2017 124.29 38.9929C124.507 38.7841 124.673 38.5263 124.789 38.2195L126.597 38.5455C126.453 39.0781 126.193 39.5447 125.818 39.9453C125.447 40.3416 124.98 40.6506 124.418 40.8722C123.86 41.0895 123.222 41.1982 122.507 41.1982ZM121.509 29.8714L123.005 26.9247H125.019L123.037 29.8714H121.509ZM128.839 31.1818H130.751V41.6392C130.751 42.2955 130.631 42.8494 130.393 43.3011C130.158 43.7528 129.809 44.0959 129.344 44.3303C128.884 44.5646 128.315 44.6818 127.638 44.6818C127.57 44.6818 127.506 44.6818 127.446 44.6818C127.382 44.6818 127.316 44.6797 127.248 44.6754V43.0327C127.308 43.0327 127.361 43.0327 127.408 43.0327C127.45 43.0327 127.499 43.0327 127.555 43.0327C128.006 43.0327 128.332 42.9112 128.533 42.6683C128.737 42.4297 128.839 42.0824 128.839 41.6264V31.1818ZM129.786 29.6669C129.453 29.6669 129.168 29.5561 128.929 29.3345C128.695 29.1087 128.577 28.8402 128.577 28.5291C128.577 28.2138 128.695 27.9453 128.929 27.7237C129.168 27.4979 129.453 27.3849 129.786 27.3849C130.118 27.3849 130.401 27.4979 130.636 27.7237C130.874 27.9453 130.994 28.2138 130.994 28.5291C130.994 28.8402 130.874 29.1087 130.636 29.3345C130.401 29.5561 130.118 29.6669 129.786 29.6669ZM136.179 41.2173C135.557 41.2173 134.994 41.1023 134.492 40.8722C133.989 40.6378 133.59 40.299 133.296 39.8558C133.007 39.4126 132.862 38.8693 132.862 38.2259C132.862 37.6719 132.968 37.2159 133.181 36.858C133.394 36.5 133.682 36.2166 134.044 36.0078C134.406 35.799 134.811 35.6413 135.259 35.5348C135.706 35.4283 136.162 35.3473 136.627 35.2919C137.215 35.2237 137.692 35.1683 138.058 35.1257C138.425 35.0788 138.691 35.0043 138.857 34.902C139.024 34.7997 139.107 34.6335 139.107 34.4034V34.3587C139.107 33.8004 138.949 33.3679 138.634 33.0611C138.323 32.7543 137.858 32.6009 137.24 32.6009C136.597 32.6009 136.09 32.7436 135.719 33.0291C135.352 33.3104 135.099 33.6236 134.958 33.9688L133.162 33.5597C133.375 32.9631 133.686 32.4815 134.095 32.1151C134.509 31.7443 134.984 31.4759 135.521 31.3097C136.058 31.1392 136.622 31.054 137.215 31.054C137.607 31.054 138.022 31.1009 138.461 31.1946C138.904 31.2841 139.318 31.4503 139.701 31.6932C140.089 31.9361 140.406 32.2834 140.654 32.7351C140.901 33.1825 141.024 33.7642 141.024 34.4801V41H139.158V39.6577H139.081C138.958 39.9048 138.772 40.1477 138.525 40.3864C138.278 40.625 137.96 40.8232 137.573 40.9808C137.185 41.1385 136.72 41.2173 136.179 41.2173ZM136.595 39.6832C137.123 39.6832 137.575 39.5788 137.95 39.37C138.329 39.1612 138.617 38.8885 138.813 38.5518C139.013 38.2109 139.113 37.8466 139.113 37.4588V36.1932C139.045 36.2614 138.913 36.3253 138.717 36.3849C138.525 36.4403 138.306 36.4893 138.058 36.532C137.811 36.5703 137.57 36.6065 137.336 36.6406C137.102 36.6705 136.906 36.696 136.748 36.7173C136.377 36.7642 136.039 36.843 135.732 36.9538C135.429 37.0646 135.186 37.2244 135.003 37.4332C134.824 37.6378 134.735 37.9105 134.735 38.2514C134.735 38.7244 134.909 39.0824 135.259 39.3253C135.608 39.5639 136.053 39.6832 136.595 39.6832ZM145.481 35.1705V41H143.57V31.1818H145.404V32.7798H145.526C145.752 32.2599 146.105 31.8423 146.587 31.527C147.073 31.2116 147.684 31.054 148.422 31.054C149.091 31.054 149.676 31.1946 150.179 31.4759C150.682 31.7528 151.072 32.1662 151.349 32.7159C151.626 33.2656 151.765 33.9453 151.765 34.755V41H149.853V34.9851C149.853 34.2734 149.668 33.7173 149.297 33.3168C148.926 32.9119 148.417 32.7095 147.77 32.7095C147.326 32.7095 146.932 32.8054 146.587 32.9972C146.246 33.1889 145.975 33.4702 145.775 33.8409C145.579 34.2074 145.481 34.6506 145.481 35.1705ZM158.463 41.1982C157.543 41.1982 156.74 40.9872 156.054 40.5653C155.368 40.1435 154.835 39.5533 154.456 38.7947C154.076 38.0362 153.887 37.1499 153.887 36.1357C153.887 35.1172 154.076 34.2266 154.456 33.4638C154.835 32.701 155.368 32.1087 156.054 31.6868C156.74 31.2649 157.543 31.054 158.463 31.054C159.384 31.054 160.187 31.2649 160.873 31.6868C161.559 32.1087 162.092 32.701 162.471 33.4638C162.85 34.2266 163.04 35.1172 163.04 36.1357C163.04 37.1499 162.85 38.0362 162.471 38.7947C162.092 39.5533 161.559 40.1435 160.873 40.5653C160.187 40.9872 159.384 41.1982 158.463 41.1982ZM158.47 39.5938C159.066 39.5938 159.561 39.4361 159.953 39.1207C160.345 38.8054 160.635 38.3857 160.822 37.8615C161.014 37.3374 161.11 36.7599 161.11 36.1293C161.11 35.5028 161.014 34.9276 160.822 34.4034C160.635 33.875 160.345 33.451 159.953 33.1314C159.561 32.8118 159.066 32.652 158.47 32.652C157.869 32.652 157.37 32.8118 156.974 33.1314C156.582 33.451 156.29 33.875 156.098 34.4034C155.911 34.9276 155.817 35.5028 155.817 36.1293C155.817 36.7599 155.911 37.3374 156.098 37.8615C156.29 38.3857 156.582 38.8054 156.974 39.1207C157.37 39.4361 157.869 39.5938 158.47 39.5938ZM172.531 33.5788L170.798 33.8857C170.726 33.6641 170.611 33.4531 170.453 33.2528C170.3 33.0526 170.091 32.8885 169.827 32.7607C169.563 32.6328 169.232 32.5689 168.836 32.5689C168.295 32.5689 167.843 32.6903 167.481 32.9332C167.119 33.1719 166.938 33.4808 166.938 33.8601C166.938 34.1882 167.059 34.4524 167.302 34.6527C167.545 34.853 167.937 35.017 168.478 35.1449L170.038 35.5028C170.941 35.7116 171.615 36.0334 172.058 36.468C172.501 36.9027 172.722 37.4673 172.722 38.1619C172.722 38.75 172.552 39.2741 172.211 39.7344C171.874 40.1903 171.404 40.5483 170.798 40.8082C170.198 41.0682 169.501 41.1982 168.708 41.1982C167.609 41.1982 166.712 40.9638 166.017 40.495C165.323 40.022 164.896 39.3509 164.739 38.4815L166.586 38.2003C166.701 38.6818 166.938 39.0462 167.296 39.2933C167.654 39.5362 168.12 39.6577 168.695 39.6577C169.322 39.6577 169.823 39.5277 170.198 39.2678C170.573 39.0036 170.76 38.6818 170.76 38.3026C170.76 37.9957 170.645 37.7379 170.415 37.5291C170.189 37.3203 169.842 37.1626 169.373 37.0561L167.711 36.6918C166.795 36.483 166.117 36.1506 165.678 35.6946C165.244 35.2386 165.026 34.6612 165.026 33.9624C165.026 33.3828 165.188 32.8757 165.512 32.4411C165.836 32.0064 166.284 31.6676 166.855 31.4247C167.426 31.1776 168.08 31.054 168.817 31.054C169.878 31.054 170.713 31.2841 171.323 31.7443C171.932 32.2003 172.335 32.8118 172.531 33.5788ZM184.171 31.1818V32.7159H178.808V31.1818H184.171ZM180.246 28.8295H182.157V38.1172C182.157 38.4879 182.213 38.767 182.323 38.9545C182.434 39.1378 182.577 39.2635 182.752 39.3317C182.931 39.3956 183.124 39.4276 183.333 39.4276C183.487 39.4276 183.621 39.4169 183.736 39.3956C183.851 39.3743 183.941 39.3572 184.004 39.3445L184.35 40.9233C184.239 40.9659 184.081 41.0085 183.877 41.0511C183.672 41.098 183.416 41.1236 183.11 41.1278C182.607 41.1364 182.138 41.0469 181.703 40.8594C181.269 40.6719 180.917 40.3821 180.649 39.9901C180.38 39.598 180.246 39.1058 180.246 38.5135V28.8295ZM192.504 36.9283V31.1818H194.422V41H192.543V39.2997H192.44C192.214 39.8239 191.852 40.2607 191.354 40.6101C190.859 40.9553 190.244 41.1278 189.506 41.1278C188.876 41.1278 188.317 40.9893 187.832 40.7124C187.35 40.4311 186.971 40.0156 186.694 39.4659C186.421 38.9162 186.285 38.2365 186.285 37.4268V31.1818H188.196V37.1967C188.196 37.8658 188.381 38.3984 188.752 38.7947C189.123 39.1911 189.604 39.3892 190.197 39.3892C190.555 39.3892 190.911 39.2997 191.264 39.1207C191.622 38.9418 191.918 38.6712 192.153 38.3089C192.391 37.9467 192.509 37.4865 192.504 36.9283ZM204.347 33.5788L202.615 33.8857C202.542 33.6641 202.427 33.4531 202.27 33.2528C202.116 33.0526 201.907 32.8885 201.643 32.7607C201.379 32.6328 201.049 32.5689 200.653 32.5689C200.111 32.5689 199.66 32.6903 199.297 32.9332C198.935 33.1719 198.754 33.4808 198.754 33.8601C198.754 34.1882 198.876 34.4524 199.118 34.6527C199.361 34.853 199.753 35.017 200.295 35.1449L201.854 35.5028C202.758 35.7116 203.431 36.0334 203.874 36.468C204.317 36.9027 204.539 37.4673 204.539 38.1619C204.539 38.75 204.368 39.2741 204.028 39.7344C203.691 40.1903 203.22 40.5483 202.615 40.8082C202.014 41.0682 201.317 41.1982 200.525 41.1982C199.425 41.1982 198.528 40.9638 197.834 40.495C197.139 40.022 196.713 39.3509 196.555 38.4815L198.403 38.2003C198.518 38.6818 198.754 39.0462 199.112 39.2933C199.47 39.5362 199.937 39.6577 200.512 39.6577C201.138 39.6577 201.639 39.5277 202.014 39.2678C202.389 39.0036 202.577 38.6818 202.577 38.3026C202.577 37.9957 202.461 37.7379 202.231 37.5291C202.006 37.3203 201.658 37.1626 201.189 37.0561L199.528 36.6918C198.611 36.483 197.934 36.1506 197.495 35.6946C197.06 35.2386 196.843 34.6612 196.843 33.9624C196.843 33.3828 197.005 32.8757 197.329 32.4411C197.653 32.0064 198.1 31.6676 198.671 31.4247C199.242 31.1776 199.896 31.054 200.633 31.054C201.694 31.054 202.53 31.2841 203.139 31.7443C203.748 32.2003 204.151 32.8118 204.347 33.5788ZM215.079 41.1918C214.287 41.1918 213.579 40.9893 212.957 40.5845C212.339 40.1754 211.854 39.5937 211.5 38.8395C211.15 38.081 210.976 37.1712 210.976 36.1101C210.976 35.049 211.153 34.1413 211.506 33.3871C211.864 32.6328 212.354 32.0554 212.976 31.6548C213.599 31.2543 214.304 31.054 215.092 31.054C215.702 31.054 216.192 31.1562 216.562 31.3608C216.937 31.5611 217.227 31.7955 217.432 32.0639C217.64 32.3324 217.802 32.5689 217.917 32.7734H218.032V27.9091H219.944V41H218.077V39.4723H217.917C217.802 39.6811 217.636 39.9197 217.419 40.1882C217.206 40.4567 216.912 40.6911 216.537 40.8913C216.162 41.0916 215.676 41.1918 215.079 41.1918ZM215.501 39.5618C216.051 39.5618 216.515 39.4169 216.895 39.1271C217.278 38.8331 217.568 38.4261 217.764 37.9062C217.964 37.3864 218.064 36.7812 218.064 36.0909C218.064 35.4091 217.966 34.8125 217.77 34.3011C217.574 33.7898 217.287 33.3913 216.907 33.1058C216.528 32.8203 216.059 32.6776 215.501 32.6776C214.926 32.6776 214.447 32.8267 214.063 33.125C213.68 33.4233 213.39 33.8303 213.194 34.3459C213.002 34.8615 212.906 35.4432 212.906 36.0909C212.906 36.7472 213.004 37.3374 213.2 37.8615C213.396 38.3857 213.686 38.8011 214.069 39.108C214.457 39.4105 214.934 39.5618 215.501 39.5618ZM225.529 41.2173C224.907 41.2173 224.344 41.1023 223.841 40.8722C223.338 40.6378 222.94 40.299 222.646 39.8558C222.356 39.4126 222.211 38.8693 222.211 38.2259C222.211 37.6719 222.318 37.2159 222.531 36.858C222.744 36.5 223.032 36.2166 223.394 36.0078C223.756 35.799 224.161 35.6413 224.608 35.5348C225.056 35.4283 225.512 35.3473 225.976 35.2919C226.564 35.2237 227.042 35.1683 227.408 35.1257C227.775 35.0788 228.041 35.0043 228.207 34.902C228.373 34.7997 228.456 34.6335 228.456 34.4034V34.3587C228.456 33.8004 228.299 33.3679 227.983 33.0611C227.672 32.7543 227.208 32.6009 226.59 32.6009C225.946 32.6009 225.439 32.7436 225.069 33.0291C224.702 33.3104 224.449 33.6236 224.308 33.9688L222.512 33.5597C222.725 32.9631 223.036 32.4815 223.445 32.1151C223.858 31.7443 224.333 31.4759 224.87 31.3097C225.407 31.1392 225.972 31.054 226.564 31.054C226.956 31.054 227.372 31.1009 227.811 31.1946C228.254 31.2841 228.667 31.4503 229.051 31.6932C229.439 31.9361 229.756 32.2834 230.003 32.7351C230.25 33.1825 230.374 33.7642 230.374 34.4801V41H228.507V39.6577H228.431C228.307 39.9048 228.122 40.1477 227.875 40.3864C227.627 40.625 227.31 40.8232 226.922 40.9808C226.534 41.1385 226.07 41.2173 225.529 41.2173ZM225.944 39.6832C226.473 39.6832 226.924 39.5788 227.299 39.37C227.679 39.1612 227.966 38.8885 228.162 38.5518C228.363 38.2109 228.463 37.8466 228.463 37.4588V36.1932C228.395 36.2614 228.262 36.3253 228.066 36.3849C227.875 36.4403 227.655 36.4893 227.408 36.532C227.161 36.5703 226.92 36.6065 226.686 36.6406C226.451 36.6705 226.255 36.696 226.098 36.7173C225.727 36.7642 225.388 36.843 225.081 36.9538C224.779 37.0646 224.536 37.2244 224.353 37.4332C224.174 37.6378 224.084 37.9105 224.084 38.2514C224.084 38.7244 224.259 39.0824 224.608 39.3253C224.958 39.5639 225.403 39.6832 225.944 39.6832ZM237.503 31.1818V32.7159H232.14V31.1818H237.503ZM233.578 28.8295H235.489V38.1172C235.489 38.4879 235.545 38.767 235.655 38.9545C235.766 39.1378 235.909 39.2635 236.084 39.3317C236.263 39.3956 236.456 39.4276 236.665 39.4276C236.819 39.4276 236.953 39.4169 237.068 39.3956C237.183 39.3743 237.273 39.3572 237.336 39.3445L237.682 40.9233C237.571 40.9659 237.413 41.0085 237.209 41.0511C237.004 41.098 236.748 41.1236 236.442 41.1278C235.939 41.1364 235.47 41.0469 235.035 40.8594C234.601 40.6719 234.249 40.3821 233.981 39.9901C233.712 39.598 233.578 39.1058 233.578 38.5135V28.8295ZM243.647 41.1982C242.727 41.1982 241.923 40.9872 241.237 40.5653C240.551 40.1435 240.018 39.5533 239.639 38.7947C239.26 38.0362 239.07 37.1499 239.07 36.1357C239.07 35.1172 239.26 34.2266 239.639 33.4638C240.018 32.701 240.551 32.1087 241.237 31.6868C241.923 31.2649 242.727 31.054 243.647 31.054C244.567 31.054 245.371 31.2649 246.057 31.6868C246.743 32.1087 247.276 32.701 247.655 33.4638C248.034 34.2266 248.224 35.1172 248.224 36.1357C248.224 37.1499 248.034 38.0362 247.655 38.7947C247.276 39.5533 246.743 40.1435 246.057 40.5653C245.371 40.9872 244.567 41.1982 243.647 41.1982ZM243.653 39.5938C244.25 39.5938 244.744 39.4361 245.136 39.1207C245.528 38.8054 245.818 38.3857 246.006 37.8615C246.197 37.3374 246.293 36.7599 246.293 36.1293C246.293 35.5028 246.197 34.9276 246.006 34.4034C245.818 33.875 245.528 33.451 245.136 33.1314C244.744 32.8118 244.25 32.652 243.653 32.652C243.053 32.652 242.554 32.8118 242.158 33.1314C241.766 33.451 241.474 33.875 241.282 34.4034C241.094 34.9276 241.001 35.5028 241.001 36.1293C241.001 36.7599 241.094 37.3374 241.282 37.8615C241.474 38.3857 241.766 38.8054 242.158 39.1207C242.554 39.4361 243.053 39.5938 243.653 39.5938ZM257.714 33.5788L255.982 33.8857C255.91 33.6641 255.795 33.4531 255.637 33.2528C255.483 33.0526 255.275 32.8885 255.01 32.7607C254.746 32.6328 254.416 32.5689 254.02 32.5689C253.479 32.5689 253.027 32.6903 252.665 32.9332C252.302 33.1719 252.121 33.4808 252.121 33.8601C252.121 34.1882 252.243 34.4524 252.486 34.6527C252.729 34.853 253.121 35.017 253.662 35.1449L255.221 35.5028C256.125 35.7116 256.798 36.0334 257.241 36.468C257.684 36.9027 257.906 37.4673 257.906 38.1619C257.906 38.75 257.736 39.2741 257.395 39.7344C257.058 40.1903 256.587 40.5483 255.982 40.8082C255.381 41.0682 254.684 41.1982 253.892 41.1982C252.792 41.1982 251.895 40.9638 251.201 40.495C250.506 40.022 250.08 39.3509 249.922 38.4815L251.77 38.2003C251.885 38.6818 252.121 39.0462 252.479 39.2933C252.837 39.5362 253.304 39.6577 253.879 39.6577C254.506 39.6577 255.006 39.5277 255.381 39.2678C255.756 39.0036 255.944 38.6818 255.944 38.3026C255.944 37.9957 255.829 37.7379 255.599 37.5291C255.373 37.3203 255.025 37.1626 254.557 37.0561L252.895 36.6918C251.979 36.483 251.301 36.1506 250.862 35.6946C250.427 35.2386 250.21 34.6612 250.21 33.9624C250.21 33.3828 250.372 32.8757 250.696 32.4411C251.02 32.0064 251.467 31.6676 252.038 31.4247C252.609 31.1776 253.263 31.054 254.001 31.054C255.062 31.054 255.897 31.2841 256.506 31.7443C257.116 32.2003 257.518 32.8118 257.714 33.5788ZM267.628 41.2173C267.006 41.2173 266.444 41.1023 265.941 40.8722C265.438 40.6378 265.04 40.299 264.746 39.8558C264.456 39.4126 264.311 38.8693 264.311 38.2259C264.311 37.6719 264.417 37.2159 264.631 36.858C264.844 36.5 265.131 36.2166 265.493 36.0078C265.856 35.799 266.26 35.6413 266.708 35.5348C267.155 35.4283 267.611 35.3473 268.076 35.2919C268.664 35.2237 269.141 35.1683 269.508 35.1257C269.874 35.0788 270.14 35.0043 270.307 34.902C270.473 34.7997 270.556 34.6335 270.556 34.4034V34.3587C270.556 33.8004 270.398 33.3679 270.083 33.0611C269.772 32.7543 269.307 32.6009 268.689 32.6009C268.046 32.6009 267.539 32.7436 267.168 33.0291C266.802 33.3104 266.548 33.6236 266.407 33.9688L264.611 33.5597C264.824 32.9631 265.135 32.4815 265.545 32.1151C265.958 31.7443 266.433 31.4759 266.97 31.3097C267.507 31.1392 268.072 31.054 268.664 31.054C269.056 31.054 269.471 31.1009 269.91 31.1946C270.354 31.2841 270.767 31.4503 271.15 31.6932C271.538 31.9361 271.856 32.2834 272.103 32.7351C272.35 33.1825 272.474 33.7642 272.474 34.4801V41H270.607V39.6577H270.53C270.407 39.9048 270.221 40.1477 269.974 40.3864C269.727 40.625 269.41 40.8232 269.022 40.9808C268.634 41.1385 268.17 41.2173 267.628 41.2173ZM268.044 39.6832C268.572 39.6832 269.024 39.5788 269.399 39.37C269.778 39.1612 270.066 38.8885 270.262 38.5518C270.462 38.2109 270.562 37.8466 270.562 37.4588V36.1932C270.494 36.2614 270.362 36.3253 270.166 36.3849C269.974 36.4403 269.755 36.4893 269.508 36.532C269.26 36.5703 269.02 36.6065 268.785 36.6406C268.551 36.6705 268.355 36.696 268.197 36.7173C267.827 36.7642 267.488 36.843 267.181 36.9538C266.878 37.0646 266.635 37.2244 266.452 37.4332C266.273 37.6378 266.184 37.9105 266.184 38.2514C266.184 38.7244 266.358 39.0824 266.708 39.3253C267.057 39.5639 267.503 39.6832 268.044 39.6832ZM281.648 44.6818V39.4723H281.533C281.418 39.6811 281.251 39.9197 281.034 40.1882C280.821 40.4567 280.527 40.6911 280.152 40.8913C279.777 41.0916 279.291 41.1918 278.695 41.1918C277.902 41.1918 277.195 40.9893 276.572 40.5845C275.955 40.1754 275.469 39.5937 275.115 38.8395C274.766 38.081 274.591 37.1712 274.591 36.1101C274.591 35.049 274.768 34.1413 275.121 33.3871C275.479 32.6328 275.969 32.0554 276.592 31.6548C277.214 31.2543 277.919 31.054 278.707 31.054C279.317 31.054 279.807 31.1562 280.178 31.3608C280.553 31.5611 280.842 31.7955 281.047 32.0639C281.256 32.3324 281.418 32.5689 281.533 32.7734H281.692V31.1818H283.559V44.6818H281.648ZM279.116 39.5618C279.666 39.5618 280.131 39.4169 280.51 39.1271C280.893 38.8331 281.183 38.4261 281.379 37.9062C281.58 37.3864 281.68 36.7812 281.68 36.0909C281.68 35.4091 281.582 34.8125 281.386 34.3011C281.19 33.7898 280.902 33.3913 280.523 33.1058C280.143 32.8203 279.675 32.6776 279.116 32.6776C278.541 32.6776 278.062 32.8267 277.678 33.125C277.295 33.4233 277.005 33.8303 276.809 34.3459C276.617 34.8615 276.521 35.4432 276.521 36.0909C276.521 36.7472 276.619 37.3374 276.815 37.8615C277.011 38.3857 277.301 38.8011 277.685 39.108C278.072 39.4105 278.55 39.5618 279.116 39.5618ZM292.348 36.9283V31.1818H294.266V41H292.386V39.2997H292.284C292.058 39.8239 291.696 40.2607 291.197 40.6101C290.703 40.9553 290.087 41.1278 289.35 41.1278C288.719 41.1278 288.161 40.9893 287.675 40.7124C287.194 40.4311 286.815 40.0156 286.538 39.4659C286.265 38.9162 286.129 38.2365 286.129 37.4268V31.1818H288.04V37.1967C288.04 37.8658 288.225 38.3984 288.596 38.7947C288.967 39.1911 289.448 39.3892 290.04 39.3892C290.398 39.3892 290.754 39.2997 291.108 39.1207C291.466 38.9418 291.762 38.6712 291.996 38.3089C292.235 37.9467 292.352 37.4865 292.348 36.9283ZM296.834 41V31.1818H298.745V41H296.834ZM297.013 29.8714L298.508 26.9247H300.522L298.54 29.8714H297.013Z" fill="white"/>
<g clip-path="url(#clip0_160_163)">
<path d="M48.847 33.7606C48.8461 37.1213 49.7242 40.4029 51.394 43.2953L48.6873 53.1778L58.8008 50.526C61.5981 52.0488 64.7322 52.8467 67.9171 52.8469H67.9255C78.4394 52.8469 86.998 44.2914 87.0025 33.7756C87.0045 28.68 85.0219 23.8883 81.4197 20.2834C77.8182 16.6787 73.0282 14.6925 67.9247 14.6902C57.4095 14.6902 48.8515 23.2452 48.8472 33.7606" fill="url(#paint0_linear_160_163)"/>
<path d="M48.1659 33.7544C48.1648 37.2361 49.0744 40.635 50.8037 43.631L48 53.8678L58.4761 51.1209C61.3626 52.6947 64.6126 53.5245 67.9195 53.5257H67.9281C78.8192 53.5257 87.6853 44.6625 87.6899 33.7702C87.6918 28.4915 85.6378 23.5276 81.907 19.7935C78.1757 16.0598 73.2144 14.0022 67.9281 14C57.035 14 48.1702 22.862 48.1659 33.7544ZM54.4048 43.115L54.0136 42.4941C52.3693 39.8795 51.5014 36.8581 51.5026 33.7557C51.506 24.7022 58.8741 17.3364 67.9343 17.3364C72.3219 17.3383 76.4453 19.0487 79.5467 22.1519C82.6479 25.2555 84.3544 29.3811 84.3533 33.769C84.3493 42.8225 76.9811 50.1891 67.9281 50.1891H67.9216C64.9738 50.1876 62.0828 49.396 59.5616 47.9L58.9616 47.5442L52.7448 49.1741L54.4048 43.115Z" fill="url(#paint1_linear_160_163)"/>
<path d="M62.9889 25.4958C62.6189 24.6736 62.2296 24.657 61.8779 24.6426C61.5898 24.6302 61.2605 24.6311 60.9315 24.6311C60.6022 24.6311 60.0672 24.755 59.6149 25.2488C59.1622 25.7431 57.8865 26.9375 57.8865 29.3668C57.8865 31.7961 59.656 34.144 59.9027 34.4738C60.1496 34.8029 63.3186 39.9477 68.3375 41.9269C72.5087 43.5717 73.3575 43.2446 74.2628 43.1621C75.1682 43.08 77.1844 41.968 77.5957 40.815C78.0073 39.6621 78.0073 38.6739 77.8839 38.4674C77.7605 38.2617 77.4312 38.1381 76.9374 37.8913C76.4436 37.6445 74.0158 36.4497 73.5633 36.2849C73.1106 36.1203 72.7814 36.0381 72.4521 36.5325C72.1228 37.0262 71.1772 38.1381 70.889 38.4674C70.6011 38.7975 70.3129 38.8386 69.8192 38.5916C69.3251 38.3438 67.7349 37.8231 65.8482 36.141C64.3803 34.8322 63.3893 33.2159 63.1013 32.7215C62.8132 32.2279 63.0704 31.9603 63.318 31.7142C63.5399 31.493 63.812 31.1376 64.0591 30.8494C64.3053 30.561 64.3875 30.3553 64.5521 30.026C64.7169 29.6964 64.6344 29.408 64.5112 29.161C64.3875 28.9141 63.4279 26.472 62.9889 25.4958Z" fill="white"/>
</g>
</g>
<defs>
<filter id="filter0_d_160_163" x="0" y="0" width="349" height="108" filterUnits="userSpaceOnUse" color-interpolation-filters="sRGB">
<feFlood flood-opacity="0" result="BackgroundImageFix"/>
<feColorMatrix in="SourceAlpha" type="matrix" values="0 0 0 0 0 0 0 0 0 0 0 0 0 0 0 0 0 0 127 0" result="hardAlpha"/>
<feOffset dy="20"/>
<feGaussianBlur stdDeviation="12"/>
<feComposite in2="hardAlpha" operator="out"/>
<feColorMatrix type="matrix" values="0 0 0 0 0.329412 0 0 0 0 0.741176 0 0 0 0 0.584314 0 0 0 0.3 0"/>
<feBlend mode="normal" in2="BackgroundImageFix" result="effect1_dropShadow_160_163"/>
<feBlend mode="normal" in="SourceGraphic" in2="effect1_dropShadow_160_163" result="shape"/>
</filter>
<linearGradient id="paint0_linear_160_163" x1="1964.45" y1="3863.45" x2="1964.45" y2="14.6902" gradientUnits="userSpaceOnUse">
<stop stop-color="#1FAF38"/>
<stop offset="1" stop-color="#60D669"/>
</linearGradient>
<linearGradient id="paint1_linear_160_163" x1="2032.5" y1="4000.78" x2="2032.5" y2="14" gradientUnits="userSpaceOnUse">
<stop stop-color="#F9F9F9"/>
<stop offset="1" stop-color="white"/>
</linearGradient>
<clipPath id="clip0_160_163">
<rect width="39.6899" height="40" fill="white" transform="translate(48 14)"/>
</clipPath>
</defs>
</svg>
